<svg width="22" height="22" viewBox="0 0 22 22" fill="none" xmlns="http://www.w3.org/2000/svg">
<g id="apple-icon 1" clip-path="url(#clip0_149_308)">
<g id="Group">
<g id="Clip path group">
<mask id="mask0_149_308" style="mask-type:luminance" maskUnits="userSpaceOnUse" x="2" y="0" width="18" height="23">
<g id="C">
<path id="Vector" d="M2.0625 0H19.9785V22.0012H2.0625V0Z" fill="white"/>
</g>
</mask>
<g mask="url(#mask0_149_308)">
<g id="Group_2">
<path id="Vector_2" d="M17.0233 11.6896C16.998 8.90622 19.2985 7.56891 19.4021 7.50318C18.1078 5.6097 16.0955 5.35184 15.3775 5.32151C13.6661 5.14708 12.0355 6.33018 11.1659 6.33018C10.2962 6.33018 8.95641 5.34679 7.53567 5.3746C5.66747 5.4024 3.9459 6.45911 2.98273 8.13265C1.04375 11.4949 2.48724 16.4827 4.37819 19.2154C5.30344 20.5502 6.40312 22.0544 7.85167 21.9988C9.24713 21.9431 9.77295 21.0963 11.4566 21.0963C13.1403 21.0963 13.6155 21.9988 15.0868 21.971C16.5859 21.9406 17.5365 20.6058 18.4541 19.266C19.5134 17.7163 19.9507 16.2147 19.976 16.1363C19.9431 16.1237 17.0536 15.0164 17.0233 11.6896Z" fill="black"/>
</g>
</g>
</g>
<path id="Vector_3" d="M14.2551 3.51393C15.0236 2.58362 15.5419 1.28928 15.4003 0C14.293 0.0455041 12.9532 0.738178 12.1594 1.66848C11.449 2.49009 10.8246 3.80718 10.994 5.07118C12.2251 5.16724 13.4866 4.44171 14.2551 3.51393Z" fill="black"/>
</g>
</g>
<defs>
<clipPath id="clip0_149_308">
<rect width="22" height="22" fill="white"/>
</clipPath>
</defs>
</svg>
