<svg width="17" height="15" viewBox="0 0 17 15" fill="none" xmlns="http://www.w3.org/2000/svg">
<path id="Vector" d="M17 6.86164C17.0006 6.15207 16.8314 5.45334 16.5076 4.82751C16.1837 4.20168 15.7152 3.66812 15.1436 3.27423C14.572 2.88035 13.915 2.63832 13.231 2.56966C12.5471 2.501 11.8572 2.60783 11.2229 2.88066C10.5885 3.15349 10.0292 3.58387 9.59464 4.13358C9.1601 4.68328 8.86378 5.33529 8.73199 6.03168C8.60021 6.72808 8.63704 7.4473 8.83921 8.12546C9.04139 8.80362 9.40265 9.41973 9.89091 9.91905V14.5211C9.89088 14.6027 9.91106 14.683 9.94951 14.7542C9.98796 14.8255 10.0434 14.8855 10.1106 14.9284C10.1778 14.9713 10.2545 14.9958 10.3335 14.9995C10.4124 15.0032 10.4909 14.986 10.5616 14.9496L12.8273 13.7799L15.0929 14.9496C15.1572 14.9827 15.2281 14.9999 15.3 14.9999C15.3861 15 15.4704 14.9751 15.5434 14.928C15.6107 14.8852 15.6662 14.8254 15.7047 14.7541C15.7433 14.6829 15.7635 14.6027 15.7636 14.5211V9.91905C16.1555 9.51935 16.4666 9.04325 16.6788 8.5184C16.8911 7.99355 17.0002 7.4304 17 6.86164ZM9.58182 6.86164C9.58182 6.19886 9.77216 5.55098 10.1288 4.9999C10.4854 4.44883 10.9923 4.01932 11.5853 3.76569C12.1783 3.51206 12.8309 3.44569 13.4604 3.57499C14.09 3.70429 14.6683 4.02345 15.1222 4.4921C15.576 4.96075 15.8851 5.55785 16.0104 6.20788C16.1356 6.85792 16.0713 7.5317 15.8257 8.14402C15.58 8.75634 15.1641 9.2797 14.6304 9.64792C14.0966 10.0161 13.4692 10.2127 12.8273 10.2127C11.9665 10.2127 11.141 9.85961 10.5324 9.23117C9.92375 8.60273 9.58182 7.75039 9.58182 6.86164ZM14.8364 13.7464L13.0344 12.8161C12.97 12.7829 12.8992 12.7657 12.8273 12.7657C12.7554 12.7657 12.6845 12.7829 12.6202 12.8161L10.8182 13.7464V10.6347C11.4335 10.9849 12.1247 11.1685 12.8273 11.1685C13.5299 11.1685 14.221 10.9849 14.8364 10.6347V13.7464ZM8.34545 11.968C8.34545 12.0949 8.29661 12.2167 8.20966 12.3065C8.12271 12.3963 8.00478 12.4467 7.88182 12.4467H1.08182C0.794902 12.4467 0.519737 12.329 0.316857 12.1195C0.113977 11.91 0 11.6259 0 11.3297V1.11701C0 0.820761 0.113977 0.536645 0.316857 0.327165C0.519737 0.117685 0.794902 0 1.08182 0H14.6818C14.9687 0 15.2439 0.117685 15.4468 0.327165C15.6497 0.536645 15.7636 0.820761 15.7636 1.11701C15.7636 1.24397 15.7148 1.36574 15.6278 1.45552C15.5409 1.54529 15.423 1.59573 15.3 1.59573C15.177 1.59573 15.0591 1.54529 14.9722 1.45552C14.8852 1.36574 14.8364 1.24397 14.8364 1.11701C14.8364 1.07469 14.8201 1.0341 14.7911 1.00418C14.7621 0.97425 14.7228 0.957438 14.6818 0.957438H1.08182C1.04083 0.957438 1.00152 0.97425 0.972538 1.00418C0.943555 1.0341 0.927273 1.07469 0.927273 1.11701V11.3297C0.927273 11.372 0.943555 11.4126 0.972538 11.4425C1.00152 11.4724 1.04083 11.4893 1.08182 11.4893H7.88182C8.00478 11.4893 8.12271 11.5397 8.20966 11.6295C8.29661 11.7192 8.34545 11.841 8.34545 11.968ZM7.10909 7.49993C7.10909 7.62689 7.06024 7.74866 6.97329 7.83843C6.88635 7.92821 6.76842 7.97865 6.64545 7.97865H3.55455C3.43158 7.97865 3.31365 7.92821 3.22671 7.83843C3.13976 7.74866 3.09091 7.62689 3.09091 7.49993C3.09091 7.37296 3.13976 7.2512 3.22671 7.16142C3.31365 7.07165 3.43158 7.02121 3.55455 7.02121H6.64545C6.76842 7.02121 6.88635 7.07165 6.97329 7.16142C7.06024 7.2512 7.10909 7.37296 7.10909 7.49993ZM7.10909 4.94676C7.10909 5.07373 7.06024 5.19549 6.97329 5.28527C6.88635 5.37504 6.76842 5.42548 6.64545 5.42548H3.55455C3.43158 5.42548 3.31365 5.37504 3.22671 5.28527C3.13976 5.19549 3.09091 5.07373 3.09091 4.94676C3.09091 4.8198 3.13976 4.69803 3.22671 4.60826C3.31365 4.51848 3.43158 4.46804 3.55455 4.46804H6.64545C6.76842 4.46804 6.88635 4.51848 6.97329 4.60826C7.06024 4.69803 7.10909 4.8198 7.10909 4.94676Z" fill="white"/>
</svg>
