<svg width="24" height="24" viewBox="0 0 24 24" fill="none" xmlns="http://www.w3.org/2000/svg">
<path d="M20.75 0.75H3.25C1.875 0.75 0.75 1.875 0.75 3.25V20.75C0.75 22.125 1.875 23.25 3.25 23.25H20.75C22.125 23.25 23.25 22.125 23.25 20.75V3.25C23.25 1.875 22.125 0.75 20.75 0.75ZM10.3875 17.3625C10.2719 17.4784 10.1345 17.5703 9.98328 17.633C9.83206 17.6958 9.66996 17.7281 9.50625 17.7281C9.34254 17.7281 9.18044 17.6958 9.02922 17.633C8.878 17.5703 8.74064 17.4784 8.625 17.3625L4.1375 12.875C4.02177 12.7593 3.92997 12.6219 3.86734 12.4707C3.80471 12.3195 3.77247 12.1574 3.77247 11.9937C3.77247 11.8301 3.80471 11.668 3.86734 11.5168C3.92997 11.3656 4.02177 11.2282 4.1375 11.1125C4.25323 10.9968 4.39062 10.905 4.54182 10.8423C4.69303 10.7797 4.85509 10.7475 5.01875 10.7475C5.18241 10.7475 5.34447 10.7797 5.49568 10.8423C5.64688 10.905 5.78427 10.9968 5.9 11.1125L9.5 14.7125L18.1 6.1125C18.3337 5.87878 18.6507 5.74747 18.9812 5.74747C19.3118 5.74747 19.6288 5.87878 19.8625 6.1125C20.0962 6.34622 20.2275 6.66322 20.2275 6.99375C20.2275 7.32428 20.0962 7.64128 19.8625 7.875L10.3875 17.3625Z" fill="#13C49F"/>
</svg>
