<svg width="109" height="126" viewBox="0 0 109 126" fill="none" xmlns="http://www.w3.org/2000/svg">
<path d="M48.9866 2.45288C46.7137 3.79866 44.8595 4.99492 44.8595 5.11454C44.8595 5.4136 51.6183 15.2229 51.8576 15.3126C52.037 15.3724 58.3772 2.03419 58.2575 1.88466C57.48 1.19681 54.7884 -0.0293509 54.0407 0.000555477C53.4127 0.000555477 51.6781 0.837933 48.9866 2.45288Z" fill="#F7F7F7"/>
<path d="M58.9454 4.81546C58.4669 5.83227 57.0015 9.03225 55.6557 11.9033C54.3398 14.7444 53.2333 17.1967 53.2333 17.3163C53.2333 17.5257 62.0856 30.5349 69.5322 41.3311C69.8612 41.8096 70.7584 40.3143 76.6799 29.4583C80.3882 22.6396 83.4387 16.9574 83.4387 16.8079C83.4387 16.5986 60.979 3.32014 60.0818 3.02108C59.9323 2.96127 59.4239 3.76874 58.9454 4.81546Z" fill="#F7F7F7"/>
<path d="M21.5326 18.4826L0.149532 30.9835L0.0598127 33.9442L0 36.9049L10.7962 50.0637C16.7176 57.3011 22.7587 64.6281 24.1643 66.3029L26.7064 69.4131L28.2316 66.1534C29.0989 64.3889 34.5418 52.7254 40.3736 40.2844C46.2053 27.8134 51.0501 17.6154 51.1399 17.6154C51.2296 17.6154 51.4987 17.9742 51.7679 18.3929L52.2464 19.1705L52.6053 18.2733C52.9342 17.4957 52.9043 17.2565 52.4557 16.5686L51.9473 15.7612L51.4987 16.5985L51.08 17.406L50.5118 16.6883C50.2128 16.2995 48.4483 13.7275 46.5941 10.9761C44.7399 8.22476 43.1549 5.98179 43.0651 5.98179C42.9754 5.98179 33.2858 11.6042 21.5326 18.4826Z" fill="#F7F7F7"/>
<path d="M80.3583 26.3779C77.7565 31.1928 74.6163 36.9647 73.3901 39.2376L71.1173 43.3946L70.4593 42.7666L69.7715 42.1385L69.4425 42.8862C69.1434 43.5142 69.1734 43.7834 69.592 44.4114L70.0705 45.189L70.5191 44.3815C70.7285 43.9329 71.0575 43.6937 71.1771 43.8133C71.3266 43.9628 77.3677 52.7553 84.6349 63.372C91.9022 73.9888 98.033 82.8411 98.2124 83.0504C98.5115 83.3495 99.5881 81.585 103.416 74.5271L108.261 65.6449L108.201 48.3291L108.111 30.9835L96.6573 24.2844C90.347 20.6359 85.1732 17.6153 85.1433 17.6153C85.1134 17.6452 82.9602 21.563 80.3583 26.3779Z" fill="#F7F7F7"/>
<path d="M40.0745 45.1292C33.4353 59.2749 27.9325 70.8487 27.8428 70.8487C27.7531 70.8487 27.4839 70.5496 27.2447 70.1907L26.8559 69.5328L26.4073 70.3403C26.198 70.7889 25.9587 71.1477 25.869 71.1477C25.8092 71.1477 20.0373 64.1496 13.0093 55.5964C6.01118 47.0432 0.209344 40.0451 0.149532 40.0451C0.0598127 40.0451 0 52.2469 0 67.1702L0.0299063 94.3251L5.71211 97.6148C8.85228 99.4092 11.5439 100.905 11.6934 100.905C11.8429 100.905 15.0429 94.3251 18.8111 86.3102C22.5793 78.2953 25.7494 71.6262 25.8391 71.5365C25.9587 71.4169 26.2578 71.6561 26.5269 72.015L27.0054 72.7328L27.4241 71.9253C27.6634 71.4767 27.9325 71.1776 28.0522 71.2674C28.1718 71.3272 31.7007 75.5739 35.8876 80.6879C41.6595 87.7158 43.6035 89.8691 43.8427 89.5999C44.3212 89.0616 68.7846 44.0227 68.7846 43.6638C68.7846 43.3647 53.2034 20.5163 52.5155 19.7686C52.2165 19.4696 49.7642 24.434 40.0745 45.1292Z" fill="#F7F7F7"/>
<path d="M65.435 53.8619C62.893 58.5272 57.2706 68.8449 52.9342 76.8299C48.5978 84.8149 45.009 91.3943 44.9193 91.484C44.8595 91.5738 44.5604 91.3345 44.2913 90.9756L43.7529 90.3177L43.1847 91.0354L42.6165 91.7532L34.9904 82.3626C30.8035 77.1888 27.3045 72.972 27.2147 72.972C27.0353 72.9421 13.398 101.981 13.5176 102.101C13.7868 102.37 31.1624 112.418 31.3418 112.418C31.4614 112.418 34.0334 107.843 37.0539 102.25C40.0745 96.6578 42.6464 92.0822 42.766 92.0822C42.8857 92.0822 43.1548 92.2915 43.3642 92.5308C43.8726 93.1289 44.1716 93.099 44.4109 92.3513C44.5305 92.0224 44.7398 91.7831 44.8595 91.8429C45.009 91.9027 50.0034 97.8541 55.9248 105.091C61.8762 112.329 66.9005 118.22 67.0799 118.16C67.2892 118.101 71.4761 115.708 76.4406 112.807L85.4125 107.574L91.3339 96.6877C94.5937 90.7065 97.375 85.7121 97.4946 85.6523C97.6442 85.5626 97.9432 85.7719 98.2124 86.1308L98.6311 86.7588L99.0498 86.1308C99.2591 85.8018 99.5283 85.5028 99.6479 85.5028C99.7675 85.5028 101.293 87.6261 103.057 90.1981C104.822 92.7999 106.317 94.9831 106.347 95.0429C106.407 95.1027 106.855 94.9831 107.364 94.7737L108.261 94.4149V81.9439V69.5029L107.543 70.7589C107.124 71.4767 105.24 74.9458 103.296 78.4748C101.382 82.0037 99.7077 84.9046 99.5582 84.9046C99.4386 84.9046 99.1395 84.6355 98.8703 84.2766C98.4516 83.6486 98.4516 83.6486 98.003 84.456L97.5844 85.2934L96.2386 83.3794C95.4909 82.3327 89.39 73.4505 82.691 63.6711C75.992 53.8918 70.4294 45.7572 70.2799 45.6376C70.1602 45.4881 67.9771 49.1965 65.435 53.8619Z" fill="#F7F7F7"/>
<path d="M93.5471 96.3289C90.8256 101.323 88.6424 105.45 88.7023 105.51C88.7322 105.54 92.4405 103.476 96.8966 100.905L104.971 96.1793L104.463 95.4018C101.951 91.6037 98.9003 87.2972 98.7209 87.2972C98.6012 87.2972 96.2686 91.3644 93.5471 96.3289Z" fill="#F7F7F7"/>
<path d="M39.0578 102.31C36.426 107.125 33.9737 111.611 33.6148 112.269L32.927 113.465L43.0353 119.357C50.4222 123.663 53.4128 125.278 54.1007 125.278C54.7586 125.278 56.6427 124.381 60.1119 122.347C62.8932 120.762 65.1361 119.357 65.1062 119.237C64.9866 118.848 44.2017 93.5775 43.9923 93.5775C43.8727 93.5775 41.6597 97.5251 39.0578 102.31Z" fill="#F7F7F7"/>
</svg>
