<svg width="104" height="21" viewBox="0 0 104 21" fill="none" xmlns="http://www.w3.org/2000/svg">
<path d="M19.3267 3.24687V6.46798L18.6567 5.95261C17.3425 4.92185 14.1214 5.41146 13.3483 6.75144C13.0906 7.18951 13.0133 8.76142 13.0133 13.0133C13.0133 19.4297 13.1164 19.7905 14.8429 20.3574C16.2344 20.8213 18.2959 20.5636 18.8628 19.842L19.3267 19.2751V19.9451C19.3267 20.5893 19.3782 20.6151 21.0017 20.6151H22.6766V10.3076V-1.09076e-05H21.0017H19.3267V3.24687ZM18.9144 8.40065C19.2494 8.73565 19.3267 9.50871 19.3267 12.9617C19.3267 15.2552 19.2236 17.2652 19.1205 17.4455C18.8628 17.8578 17.6775 18.1155 17.0333 17.9094C16.5179 17.7548 16.4921 17.5744 16.4921 13.0133C16.4921 9.48295 16.5694 8.24604 16.8271 8.16873C17.4971 7.88527 18.5279 8.01412 18.9144 8.40065Z" fill="white"/>
<path d="M56.9493 10.3076V20.6151H58.7532H60.557V10.3076V-1.09076e-05H58.7532H56.9493V10.3076Z" fill="white"/>
<path d="M92.7681 10.3076V20.6151H94.5719H96.3757V10.3076V-1.09076e-05H94.5719H92.7681V10.3076Z" fill="white"/>
<path d="M0 10.8229V20.6151H4.76725H9.5345V19.3267V18.0382H6.57107H3.60765V14.946V11.8537H5.92685H8.24605V10.5652V9.27679H5.92685H3.60765V6.57106V3.86532H6.468H9.30258L9.22527 2.49957L9.14796 1.15959L4.58687 1.08228L0 1.03075V10.8229Z" fill="white"/>
<path d="M41.4879 10.7972V20.6151H45.6109C50.0947 20.6151 51.2286 20.3832 51.8212 19.2751C52.0532 18.8886 52.1562 17.5228 52.1562 15.2552C52.1562 12.1114 52.1305 11.8021 51.6151 11.2868C51.1255 10.7972 51.0997 10.6941 51.4347 10.4364C52.0016 10.0241 52.2335 8.68411 52.182 5.74645C52.1047 1.41728 51.7955 1.21113 45.8171 1.08228L41.4879 0.979206V10.7972ZM48.394 3.81379C48.6259 3.9684 48.7032 4.74147 48.6517 6.72567L48.5744 9.40564H46.7705H44.9667L44.8894 6.85452C44.8636 5.43723 44.8894 4.12301 44.9409 3.94263C45.0956 3.5561 47.8271 3.47879 48.394 3.81379ZM48.5744 15.0748V17.9094H46.7705H44.9667L44.8894 14.9975L44.8121 12.0856L46.6932 12.1629L48.5744 12.2402V15.0748Z" fill="white"/>
<path d="M27.1089 12.2402L27.1862 19.069L27.882 19.739C29.0416 20.8986 31.9019 20.9501 32.9842 19.7905L33.4996 19.2236V19.9194C33.4996 20.6151 33.5254 20.6151 35.1746 20.6151H36.8496V13.0133V5.41148H35.0457H33.2419L33.1904 11.5187L33.1131 17.6517L32.4173 17.8836C31.9535 18.064 31.5154 18.0382 31.0516 17.8321L30.4073 17.5229V11.4672V5.41148H28.7324H27.0316L27.1089 12.2402Z" fill="white"/>
<path d="M66.8188 5.59184C66.5095 5.64337 65.9426 6.05568 65.5818 6.46798L64.9376 7.26681V12.8844C64.9376 18.7597 65.0407 19.4555 66.0457 20.0997C66.793 20.5893 71.6375 20.7697 72.9518 20.3832C74.7556 19.842 74.8587 19.4813 74.8587 13.0133C74.8587 6.57105 74.7556 6.18452 73.0033 5.69491C72.0498 5.41145 68.0041 5.35991 66.8188 5.59184ZM71.3283 8.50372C71.6375 9.32833 71.5345 17.4713 71.2252 17.7805C71.0706 17.9351 70.3749 18.0382 69.6791 17.9867L68.4164 17.9094L68.3391 13.271C68.3133 10.7456 68.3391 8.50372 68.3907 8.32334C68.4937 8.11719 69.0091 7.98834 69.8337 7.98834C70.916 7.98834 71.1737 8.09142 71.3283 8.50372Z" fill="white"/>
<path d="M80.9917 5.59184C79.9094 5.79799 79.1621 6.80298 78.9817 8.32334C78.6983 10.6425 78.9302 18.6051 79.3425 19.2751C79.8579 20.2286 81.1463 20.6151 83.749 20.6151C87.6143 20.6151 88.6451 19.8678 88.6451 17.0848V15.4613H86.9701H85.2951V16.6209C85.2951 17.7032 85.2693 17.7548 84.419 17.9094C83.9294 18.0125 83.2851 18.0125 83.0017 17.9094C82.4863 17.7548 82.4605 17.5744 82.4605 12.9875C82.4605 8.96757 82.5121 8.24604 82.8471 8.22027C83.0532 8.1945 83.4913 8.16873 83.8263 8.14296C84.8828 8.03989 85.2951 8.45219 85.2951 9.53448V10.5652H86.9701H88.6451V9.07064C88.6451 6.18453 87.5885 5.38569 83.8778 5.43723C82.6151 5.463 81.3009 5.5403 80.9917 5.59184Z" fill="white"/>
<path d="M99.7257 5.92683C99.5711 6.21029 98.798 7.8595 98.0249 9.58602L96.6334 12.7556L98.2311 16.6725L99.8545 20.6151H101.607C102.56 20.6151 103.333 20.512 103.333 20.409C103.333 20.2801 102.638 18.5794 101.787 16.6209C100.937 14.6625 100.241 12.9102 100.241 12.7298C100.241 12.5494 100.937 10.926 101.787 9.12218C102.638 7.31836 103.333 5.74645 103.333 5.64338C103.333 5.51453 102.586 5.41146 101.658 5.41146C100.267 5.41146 99.9576 5.48876 99.7257 5.92683Z" fill="white"/>
</svg>
