<svg width="17" height="17" viewBox="0 0 17 17" fill="none" xmlns="http://www.w3.org/2000/svg">
<g id="Group">
<path id="Vector" d="M10.7148 0.788858V4.24008H14.0567L10.7148 0.788858ZM1.7096 6.3246L6.41047 10.5242C6.41747 10.5298 6.42434 10.536 6.43094 10.5424L8.01841 11.9605L14.4186 6.36925V4.9939H10.3379C10.1297 4.9939 9.96102 4.82506 9.96102 4.61706V0.753825H1.7096V6.3246ZM15.1724 5.71064C15.275 5.62202 15.3889 5.58314 15.5072 5.58314C15.6072 5.58314 15.7022 5.61296 15.7893 5.66516C15.8531 5.70335 15.9118 5.75405 15.9629 5.81257C16.0966 5.96562 16.1952 6.20178 16.1952 6.39783V16.1033C16.1952 16.3161 16.1077 16.5104 15.9669 16.652L15.9661 16.6528L15.9652 16.6534L15.9644 16.6545C15.8228 16.7948 15.6291 16.882 15.4167 16.882H0.778554C0.565747 16.882 0.371623 16.7945 0.229843 16.6534L0.229156 16.6528L0.228469 16.652L0.227645 16.6512C0.0871014 16.5094 0 16.3154 0 16.1032V6.39769C0 6.19835 0.101664 5.95765 0.237674 5.80516C0.287407 5.74938 0.345933 5.70019 0.411053 5.66186C0.497055 5.61131 0.590338 5.58246 0.688018 5.58246C0.781165 5.58246 0.871426 5.60691 0.955779 5.66076V0.376981C0.955779 0.168845 1.12462 0 1.33276 0H10.8392C10.9557 0 11.0597 0.0527554 11.1288 0.135735L15.065 4.20065C15.136 4.27374 15.1713 4.36826 15.1713 4.46278H15.1724V4.57104C15.1743 4.58615 15.1753 4.60154 15.1753 4.6172C15.1753 4.63272 15.1743 4.64825 15.1724 4.66322V5.71064ZM7.76562 12.7413L6.16881 11.3148L0.753825 16.0602V16.1032C0.753825 16.1107 0.756161 16.1166 0.75987 16.1203L0.761381 16.1217C0.765091 16.1254 0.771136 16.1279 0.778554 16.1279H15.4167C15.4241 16.1279 15.4301 16.1254 15.4338 16.1217V16.122L15.4354 16.1203C15.4391 16.1166 15.4414 16.1107 15.4414 16.1032V16.0776L9.95305 11.2678L8.26323 12.7443L8.26309 12.744C8.12241 12.8674 7.9085 12.869 7.76562 12.7413ZM5.6043 10.8105L0.753825 6.47737V15.0611L5.6043 10.8105ZM15.4414 15.0787V6.47339L10.5239 10.7694L15.4414 15.0787Z" fill="white"/>
</g>
</svg>
