<svg width="18" height="18" viewBox="0 0 16 16" fill="none" xmlns="http://www.w3.org/2000/svg">
<g id="Group 1171276314">
<circle id="Ellipse 149" cx="8" cy="8" r="8" fill="white"/>
<path id="Vector" d="M12.9713 8.35825C12.9567 8.32369 12.6038 7.50162 11.8192 6.67781C10.7738 5.58012 9.45333 5 8 5C6.54667 5 5.22625 5.58012 4.18083 6.67781C3.39625 7.50162 3.04166 8.325 3.02875 8.35825C3.00979 8.40301 3 8.45145 3 8.50044C3 8.54942 3.00979 8.59786 3.02875 8.64262C3.04333 8.67719 3.39625 9.49881 4.18083 10.3226C5.22625 11.4199 6.54667 12 8 12C9.45333 12 10.7738 11.4199 11.8192 10.3226C12.6038 9.49881 12.9567 8.67719 12.9713 8.64262C12.9902 8.59786 13 8.54942 13 8.50044C13 8.45145 12.9902 8.40301 12.9713 8.35825ZM8 11.3C6.7175 11.3 5.59708 10.8104 4.66958 9.84531C4.28902 9.44793 3.96524 8.99479 3.70833 8.5C3.96517 8.00516 4.28895 7.55201 4.66958 7.15469C5.59708 6.18956 6.7175 5.7 8 5.7C9.2825 5.7 10.4029 6.18956 11.3304 7.15469C11.7117 7.55192 12.0362 8.00506 12.2938 8.5C11.9933 9.08887 10.6846 11.3 8 11.3ZM8 6.4C7.60444 6.4 7.21776 6.52316 6.88886 6.75391C6.55996 6.98466 6.30361 7.31264 6.15224 7.69636C6.00086 8.08009 5.96126 8.50233 6.03843 8.90969C6.1156 9.31705 6.30608 9.69123 6.58579 9.98492C6.86549 10.2786 7.22186 10.4786 7.60982 10.5596C7.99778 10.6407 8.39991 10.5991 8.76537 10.4401C9.13082 10.2812 9.44318 10.012 9.66294 9.6667C9.8827 9.32135 10 8.91534 10 8.5C9.99945 7.94322 9.78856 7.40942 9.41361 7.01572C9.03865 6.62201 8.53026 6.40058 8 6.4ZM8 9.9C7.73629 9.9 7.4785 9.81789 7.25924 9.66406C7.03997 9.51022 6.86908 9.29157 6.76816 9.03576C6.66724 8.77994 6.64084 8.49845 6.69229 8.22687C6.74373 7.9553 6.87072 7.70584 7.05719 7.51005C7.24366 7.31426 7.48124 7.18092 7.73988 7.1269C7.99852 7.07288 8.26661 7.10061 8.51024 7.20657C8.75388 7.31253 8.96212 7.49197 9.10863 7.7222C9.25514 7.95243 9.33333 8.22311 9.33333 8.5C9.33333 8.8713 9.19286 9.2274 8.94281 9.48995C8.69276 9.7525 8.35362 9.9 8 9.9Z" fill="black"/>
</g>
</svg>
