<svg width="36" height="36" viewBox="0 0 36 36" fill="none" xmlns="http://www.w3.org/2000/svg">
<g id="clarity:language-solid" clip-path="url(#clip0_1215_3061)">
<path id="Vector" d="M11 16.5L10 19.6H12L11 16.5Z" fill="#0EBA96"/>
<path id="Vector_2" d="M30.3 3H14.3V8H18.3V10H5.3C3.6 10 2.3 11.3 2.3 13V24C2.3 25.7 3.6 27 5.3 27H6.3V32.1L12.6 27H19.3V20H30.3C32 20 33.3 18.7 33.3 17V6C33.3 4.3 32 3 30.3 3ZM13.1 22.9L12.6 21.3H9.5L8.9 22.9H6.5L9.8 14H12.2L15.5 22.9H13.1ZM28.3 15V17C27 17 25.6 16.6 24.4 16C23.2 16.6 21.8 16.9 20.4 17L20.3 15C21 15 21.7 14.9 22.4 14.7C21.5 13.8 20.9 12.7 20.6 11.5H22.7C23 12.4 23.6 13.1 24.3 13.7C25.4 12.8 26.1 11.5 26.2 10H20.2V8H23.2V6H25.2V8H28.5L28.6 9C28.7 11.1 27.9 13.2 26.4 14.7C27.1 14.9 27.7 15 28.3 15Z" fill="#0EBA96"/>
</g>
<defs>
<clipPath id="clip0_1215_3061">
<rect width="36" height="36" fill="white"/>
</clipPath>
</defs>
</svg>
