<svg width="16" height="16" viewBox="0 0 16 16" fill="none" xmlns="http://www.w3.org/2000/svg">
<path id="Vector" d="M8.19039 0C10.7059 0 13.035 1.116 14.5795 2.9952C14.6235 3.04847 14.6564 3.11004 14.6761 3.17627C14.6958 3.24249 14.702 3.312 14.6943 3.38067C14.6866 3.44934 14.6652 3.51576 14.6314 3.57597C14.5975 3.63619 14.5518 3.68898 14.4972 3.7312C14.3858 3.81848 14.2449 3.85895 14.1042 3.84401C13.9635 3.82908 13.8342 3.75991 13.7437 3.6512C13.0683 2.83298 12.2198 2.1749 11.2593 1.72445C10.2989 1.27401 9.2504 1.04242 8.18959 1.0464C4.25836 1.0464 1.07099 4.16 1.07099 8C1.07099 11.84 4.25836 14.9536 8.18959 14.9536C9.26569 14.9577 10.3289 14.7194 11.3004 14.2565C12.2718 13.7935 13.1266 13.1177 13.8013 12.2792C13.8903 12.1694 14.0186 12.0985 14.1589 12.0816C14.2992 12.0648 14.4406 12.1032 14.5531 12.1888C14.6083 12.2303 14.6546 12.2825 14.6892 12.3422C14.7238 12.4019 14.7461 12.468 14.7546 12.5365C14.7632 12.605 14.758 12.6746 14.7391 12.741C14.7203 12.8074 14.6884 12.8694 14.6451 12.9232C13.103 14.8512 10.7427 16 8.19039 16C3.66568 16 0 12.4184 0 8C0 3.5816 3.66648 0 8.19039 0ZM13.6757 5.728L15.8401 7.8936C16.0497 8.1024 16.0536 8.4376 15.8497 8.6424L13.7349 10.7568C13.6346 10.855 13.4993 10.9093 13.3589 10.9078C13.2185 10.9063 13.0845 10.8491 12.9862 10.7488C12.9364 10.7002 12.8966 10.6422 12.8692 10.5782C12.8418 10.5142 12.8273 10.4454 12.8264 10.3758C12.8256 10.3062 12.8385 10.2371 12.8644 10.1725C12.8904 10.1078 12.9288 10.049 12.9775 9.9992L14.2148 8.7616H5.96843C5.89889 8.76245 5.82987 8.74958 5.76531 8.72375C5.70074 8.69791 5.6419 8.65961 5.59213 8.61102C5.54237 8.56244 5.50266 8.50452 5.47528 8.44059C5.44789 8.37665 5.43337 8.30795 5.43253 8.2384C5.43253 7.9488 5.67249 7.7144 5.96843 7.7144H14.182L12.9359 6.468C12.8354 6.36986 12.7781 6.23584 12.7764 6.09542C12.7748 5.955 12.829 5.81967 12.9271 5.7192C13.0275 5.62109 13.1628 5.5669 13.3032 5.56855C13.4436 5.5702 13.5776 5.62756 13.6757 5.728Z" fill="white"/>
</svg>
