<svg width="18" height="18" viewBox="0 0 18 18" fill="none" xmlns="http://www.w3.org/2000/svg">
<path id="Vector" d="M14.7143 10.1429V9C14.7143 8.6969 14.5939 8.40621 14.3796 8.19188C14.1652 7.97755 13.8745 7.85714 13.5714 7.85714H2.14286C1.83975 7.85714 1.54906 7.97755 1.33474 8.19188C1.12041 8.40621 1 8.6969 1 9V15.8571C1 16.1602 1.12041 16.4509 1.33474 16.6653C1.54906 16.8796 1.83975 17 2.14286 17H13.5714C13.8745 17 14.1652 16.8796 14.3796 16.6653C14.5939 16.4509 14.7143 16.1602 14.7143 15.8571V14.7143M14.7143 10.1429H10.1429C9.53665 10.1429 8.95527 10.3837 8.52661 10.8123C8.09796 11.241 7.85714 11.8224 7.85714 12.4286C7.85714 13.0348 8.09796 13.6162 8.52661 14.0448C8.95527 14.4735 9.53665 14.7143 10.1429 14.7143H14.7143M14.7143 10.1429C15.3205 10.1429 15.9019 10.3837 16.3305 10.8123C16.7592 11.241 17 11.8224 17 12.4286C17 13.0348 16.7592 13.6162 16.3305 14.0448C15.9019 14.4735 15.3205 14.7143 14.7143 14.7143M4.42857 7.85714V4.42857C4.42857 3.51926 4.7898 2.64719 5.43278 2.00421C6.07576 1.36122 6.94783 1 7.85714 1C8.76646 1 9.63853 1.36122 10.2815 2.00421C10.9245 2.64719 11.2857 3.51926 11.2857 4.42857V7.85714M14.1429 12.4286H15.2857M11.8571 12.4286H13M9.57143 12.4286H10.7143" stroke="white"/>
</svg>
